<svg width="135" height="169" viewBox="0 0 135 169" fill="none" xmlns="http://www.w3.org/2000/svg">
<path fill-rule="evenodd" clip-rule="evenodd" d="M135 153.831V168.083H0V153.831C0 141.768 8.20112 131.576 19.3483 128.551L27.2309 58.0448C18.2336 55.5765 11.6249 47.3356 11.5851 37.5818L9.47508 16.9994C9.15659 13.7349 10.2315 10.4704 12.4609 8.00206C14.6505 5.57358 17.7956 4.18018 21.1 4.18018H32.486C35.6709 4.18018 38.4577 6.29018 39.2937 9.31584L43.1952 23.3692L47.3356 23.21L48.0522 5.25509C48.1716 2.30905 50.6001 0 53.5462 0H79.6624C82.5288 0 84.8776 2.11 85.1563 4.9366L86.9876 23.1303L92.6806 22.9711L94.7508 10.0722C95.3082 6.64848 98.2542 4.18018 101.718 4.18018H111.909C115.174 4.18018 118.359 5.57358 120.549 8.00206C122.778 10.4704 123.853 13.7349 123.495 16.9994L121.424 37.5818C121.385 47.0171 115.174 55.059 106.615 57.806L115.612 128.551C126.799 131.536 135 141.728 135 153.831ZM32.8841 56.0941H100.125C110.357 56.0941 118.677 47.7735 118.677 37.5022V37.3828L120.787 16.7207C121.066 14.2126 120.23 11.7045 118.518 9.83338C116.846 7.96225 114.418 6.88735 111.909 6.88735H101.718C99.568 6.88735 97.7765 8.40018 97.458 10.5102L95.0295 25.6385L84.5193 25.9171L82.4491 5.21528C82.2899 3.78207 81.0956 2.70717 79.6624 2.70717H53.5462C52.0333 2.70717 50.839 3.86169 50.7594 5.37452L49.9631 25.8375L41.125 26.156L36.6662 10.0722C36.1486 8.20112 34.4367 6.88735 32.486 6.88735H21.1C18.5521 6.88735 16.1634 7.96225 14.4515 9.83338C12.7794 11.7045 11.9434 14.2126 12.1822 16.7207L14.2922 37.5022C14.2922 47.7735 22.6128 56.0941 32.8841 56.0941ZM22.1749 127.953C23.4754 127.768 24.8024 127.675 26.156 127.675H108.844C110.198 127.675 111.511 127.768 112.785 127.953L103.987 58.4827C102.713 58.6818 101.439 58.8012 100.125 58.8012H32.8841C31.8756 58.8012 30.8803 58.7349 29.8983 58.6022L22.1749 127.953ZM132.333 153.831C132.333 140.892 121.783 130.382 108.884 130.382H26.1958C13.2572 130.382 2.74698 140.892 2.74698 153.831V165.376H132.333V153.831Z" fill="#231F20"/>
<path d="M132.293 153.83V165.375H2.70703V153.83C2.70703 140.891 13.2172 130.381 26.1559 130.381H108.844C121.783 130.381 132.293 140.891 132.293 153.83Z" fill="#222222"/>
<path d="M112.784 127.953C111.51 127.767 110.197 127.674 108.843 127.674H26.155C24.8014 127.674 23.4743 127.767 22.1738 127.953L29.8972 58.6019C30.8792 58.7346 31.8745 58.8009 32.8831 58.8009H100.124C101.438 58.8009 102.712 58.6815 103.986 58.4824L112.784 127.953Z" fill="#222222"/>
<path d="M120.788 16.7206L118.678 37.3826V37.5021C118.678 47.7734 110.357 56.0939 100.126 56.0939H32.8846C22.6133 56.0939 14.2927 47.7734 14.2927 37.5021L12.1827 16.7206C11.9439 14.2125 12.7799 11.7044 14.452 9.83325C16.1639 7.96212 18.5525 6.88721 21.1004 6.88721H32.4865C34.4372 6.88721 36.1491 8.20098 36.6667 10.0721L41.1255 26.1559L49.9636 25.8374L50.7598 5.37439C50.8395 3.86156 52.0338 2.70703 53.5466 2.70703H79.6628C81.096 2.70703 82.2904 3.78194 82.4496 5.21514L84.5198 25.917L95.03 25.6383L97.4585 10.51C97.7769 8.40004 99.5685 6.88721 101.718 6.88721H111.91C114.418 6.88721 116.847 7.96212 118.519 9.83325C120.23 11.7044 121.067 14.2125 120.788 16.7206Z" fill="#222222"/>
<path d="M45.7812 58.9203C45.7812 58.9203 89.8921 62.6228 93.714 94.7505C97.0582 123.056 98.6506 127.674 98.6506 127.674L112.784 127.953L103.985 58.4824L100.562 58.8009C100.349 58.8275 100.15 58.8407 99.9644 58.8407L45.7812 58.9203Z" fill="#464646"/>
<path d="M107.531 48.9286C102.992 52.3524 97.6577 54.2633 97.6577 54.2633C94.6321 55.3382 91.9249 55.8558 89.8945 56.0946C89.8945 56.0946 104.864 57.0899 108.208 54.2235C117.324 51.2377 118.877 40.9265 119.594 31.0135C120.071 24.3651 120.828 16.4824 120.828 16.4824C119.872 32.2875 113.662 44.2707 107.531 48.9286Z" fill="#464646"/>
<path d="M132.214 151.243C130.94 139.498 120.987 130.342 108.885 130.342H67.4808H26.1169C14.0143 130.342 4.06148 139.498 2.78752 151.243C2.7079 152.079 2.74771 152.835 3.4245 150.367C4.22073 147.381 6.17148 144.873 8.52035 142.962C12.4617 139.777 17.3983 138.105 22.4543 137.986C31.0535 137.707 49.088 137.269 67.4808 137.189C85.9134 137.269 103.948 137.707 112.547 137.986C117.603 138.105 122.54 139.777 126.481 142.962C128.83 144.873 130.781 147.381 131.577 150.367C132.254 152.835 132.294 152.079 132.214 151.243Z" fill="#666666"/>
</svg>
