<svg width="158" height="159" viewBox="0 0 158 159" fill="none" xmlns="http://www.w3.org/2000/svg">
<path fill-rule="evenodd" clip-rule="evenodd" d="M158 49.1556C158 57.828 151.715 65.3067 143.253 66.8165L120.15 125.031C128.401 127.875 136.758 132.825 136.758 143.85V158.737H20.6453V143.85C20.6453 132.58 30.5818 127.418 38.6222 124.504L16.1511 66.8165C7.02222 65.9036 0 58.2143 0 48.9449C0 39.0436 8.04043 31.0031 17.9769 31.0031C27.8782 31.0031 35.9187 39.0436 35.9187 48.9449C35.9187 52.1751 35.076 55.2649 33.4609 58.0036L48.1373 73.8036L49.1205 34.2685C42.7302 31.3542 38.6573 25.0342 38.6573 17.9418C38.6573 8.04045 46.6978 0 56.5991 0C66.5004 0 74.576 8.04045 74.576 17.9418C74.576 22.9978 72.4693 27.7729 68.7476 31.1787L79.1053 63.0947L89.6738 31.0382C86.0925 27.6325 84.0209 22.9276 84.0209 17.9418C84.0209 8.04045 92.0965 0 101.998 0C111.899 0 119.975 8.04045 119.975 17.9418C119.975 25.3502 115.445 31.916 108.669 34.6196L110.811 72.4694L123.907 57.0907C122.713 54.6329 122.081 51.9294 122.081 49.1556C122.081 39.2542 130.122 31.2138 140.023 31.2138C149.924 31.2138 158 39.2542 158 49.1556ZM116.569 126.4C106.036 123.205 92.1316 122.749 78.684 122.749C63.7618 122.749 46.3116 124.399 40.5884 126.365C28.6156 130.473 23.0329 136.021 23.0329 143.85V156.35H134.335V143.85C134.335 142.657 134.23 141.533 134.019 140.48C132.65 133.984 127.137 129.56 116.569 126.4ZM155.613 49.1556C155.613 40.5885 148.625 33.6014 140.023 33.6014C131.456 33.6014 124.469 40.5885 124.469 49.1556C124.469 51.7889 125.136 54.3871 126.4 56.6694L126.26 58.0387L111.021 75.9103C110.74 76.2614 110.354 76.4369 109.968 76.4369C109.804 76.4369 109.652 76.4018 109.512 76.3316C108.95 76.156 108.599 75.6645 108.564 75.1027L106.211 33.8822L107.054 32.6885C113.339 30.5467 117.552 24.6129 117.552 17.9418C117.552 9.37467 110.6 2.38756 101.998 2.38756C93.4307 2.38756 86.4436 9.37467 86.4436 17.9418C86.4436 22.5062 88.4098 26.7898 91.8507 29.7391L92.2018 31.0382L80.4396 66.7112C80.264 67.308 79.7022 67.6943 79.1053 67.6943C78.4733 67.6943 77.9467 67.308 77.7711 66.7112L66.2196 31.1787L66.6058 29.8796C70.152 26.9302 72.1885 22.5765 72.1885 17.9418C72.1885 9.37467 65.2013 2.38756 56.5991 2.38756C48.032 2.38756 41.0449 9.37467 41.0449 17.9418C41.0449 24.332 44.872 30.02 50.8058 32.4076L51.5431 33.5311L50.4547 76.2965C50.4547 76.8583 50.1036 77.3849 49.5418 77.5605C49.3779 77.6307 49.2141 77.6658 49.0502 77.6658C48.664 77.6658 48.2778 77.4903 48.032 77.2094L31.1084 58.9867L30.968 57.4769C32.6533 54.984 33.5311 52.0347 33.5311 48.9449C33.5311 40.3778 26.544 33.3907 17.9769 33.3907C9.37465 33.3907 2.38753 40.3778 2.38753 48.9449C2.38753 57.196 8.84799 64.0427 17.064 64.4991L18.1173 65.2716L40.9396 123.767C47.7862 121.836 64.148 120.361 78.684 120.361C92.3071 120.361 106.422 120.817 117.271 124.083C117.458 124.13 117.657 124.188 117.868 124.258L141.287 65.3418L142.235 64.5694C149.854 63.516 155.613 56.88 155.613 49.1556Z" fill="#231F20"/>
<path d="M155.625 49.145C155.625 56.8694 149.867 63.5054 142.248 64.5587L141.3 65.3312L117.881 124.248C117.67 124.177 117.471 124.119 117.284 124.072C106.435 120.807 92.3199 120.35 78.6968 120.35C64.1608 120.35 47.799 121.825 40.9524 123.756L18.1302 65.261L17.0768 64.4885C8.86085 64.0321 2.40039 57.1854 2.40039 48.9343C2.40039 40.3672 9.38751 33.3801 17.9897 33.3801C26.5568 33.3801 33.544 40.3672 33.544 48.9343C33.544 52.0241 32.6662 54.9734 30.9808 57.4663L31.1213 58.9761L48.0448 77.1987C48.2906 77.4796 48.6768 77.6552 49.063 77.6552C49.2269 77.6552 49.3907 77.6201 49.5546 77.5498C50.1164 77.3743 50.4675 76.8476 50.4675 76.2858L51.5559 33.5205L50.8186 32.397C44.8848 30.0094 41.0577 24.3214 41.0577 17.9312C41.0577 9.36406 48.0448 2.37695 56.6119 2.37695C65.2141 2.37695 72.2012 9.36406 72.2012 17.9312C72.2012 22.5658 70.1648 26.9196 66.6186 29.8689L66.2324 31.1681L77.7839 66.7005C77.9595 67.2974 78.4861 67.6836 79.1181 67.6836C79.715 67.6836 80.2768 67.2974 80.4524 66.7005L92.2146 31.0276L91.8635 29.7285C88.4226 26.7792 86.4563 22.4956 86.4563 17.9312C86.4563 9.36406 93.4435 2.37695 102.011 2.37695C110.613 2.37695 117.565 9.36406 117.565 17.9312C117.565 24.6023 113.351 30.5361 107.067 32.6778L106.224 33.8716L108.576 75.0921C108.611 75.6538 108.963 76.1454 109.524 76.321C109.665 76.3912 109.817 76.4263 109.981 76.4263C110.367 76.4263 110.753 76.2507 111.034 75.8996L126.272 58.0281L126.413 56.6587C125.149 54.3765 124.482 51.7783 124.482 49.145C124.482 40.5778 131.469 33.5907 140.036 33.5907C148.638 33.5907 155.625 40.5778 155.625 49.145Z" fill="#F8F8F8"/>
<path d="M134.035 140.491C131.296 134.627 116.936 133.609 94.2542 132.802C71.5724 131.994 47.2053 133.82 36.7773 134.452C26.3493 135.049 23.0488 143.862 23.0488 143.862C23.0488 136.032 28.6315 130.484 40.6044 126.376C46.3275 124.41 63.7777 122.76 78.7 122.76C92.1475 122.76 106.052 123.216 116.585 126.411C127.153 129.571 132.666 133.995 134.035 140.491Z" fill="white"/>
<path d="M150.471 37.6094C150.471 37.6094 154.543 54.5681 138.849 58.1494C138.849 58.1494 136.988 58.5707 136.075 61.2392C135.162 63.9076 123.716 85.5712 108.162 103.548C92.6074 121.56 81.9688 120.366 81.9688 120.366C81.9688 120.366 97.0314 119.524 117.887 124.264L141.307 65.3472C141.307 65.3472 142.044 64.7854 142.255 64.5747C142.465 64.3992 152.999 63.8725 155.456 51.3729C155.456 51.3729 157.212 44.2805 150.471 37.6094Z" fill="#C1C1C1"/>
<path d="M134.351 156.344H23.0488V143.845C23.0488 143.845 26.3493 135.032 36.7773 134.435C47.2053 133.803 71.5724 131.977 94.2542 132.785C116.936 133.592 131.296 134.61 134.035 140.474L134.351 156.344Z" fill="#F8F8F8"/>
<path d="M27.4464 36.6133C27.4464 36.6133 30.6415 42.6875 26.8846 48.9373C23.2331 55.0466 27.0251 60.0675 29.3424 62.104C31.6598 64.1404 37.9797 66.4226 37.9797 66.4226L31.098 58.9791L30.9575 57.4693C30.9575 57.4693 33.5909 54.2742 33.5207 48.3404C33.4153 42.4066 29.4477 38.0177 27.4464 36.6133Z" fill="#C1C1C1"/>
<path d="M67.6824 7.0625C67.6824 7.0625 68.7708 17.7012 63.0477 23.4594C55.569 30.9381 72.9139 51.7941 72.9139 51.7941L66.2077 31.1838L66.5939 29.8847C66.5939 29.8847 68.8762 28.0941 70.5264 24.9341C72.7735 20.5452 73.9321 13.7687 67.6824 7.0625Z" fill="#C1C1C1"/>
<path d="M113.9 7.92578C113.9 7.92578 115.445 19.7231 105.473 23.3747C95.5366 27.0613 107.509 56.5196 107.509 56.5196L106.21 33.8729L107.053 32.6791C107.053 32.6791 113.022 31.0289 116.217 24.2876C119.377 17.5462 116.217 10.9102 113.9 7.92578Z" fill="#C1C1C1"/>
</svg>
