<svg width="141" height="169" viewBox="0 0 141 169" fill="none" xmlns="http://www.w3.org/2000/svg">
<path fill-rule="evenodd" clip-rule="evenodd" d="M141 154.37V163.272C141 166.388 138.478 168.911 135.362 168.911H23.5971C20.4812 168.911 17.9588 166.388 17.9588 163.272V154.37C17.9588 143.946 24.8212 134.895 34.7995 132.076C35.2446 126.994 40.104 119.464 40.6975 118.574C45.5568 110.599 51.9741 105.369 58.2059 100.324C62.5459 96.7998 66.6634 93.4613 69.7422 89.4922C73.637 84.4845 73.3774 78.9204 71.8565 75.3965C71.7082 75.0255 71.5969 74.7659 71.5227 74.5433C71.498 74.5433 71.4856 74.5309 71.4856 74.5062C68.1471 77.956 57.0931 89.0842 50.7129 90.6793C47.9679 91.347 45.7052 91.2728 43.8505 91.1986C40.8087 91.0873 39.4363 91.0131 37.7299 93.9806C35.2446 98.3577 32.3884 101.325 30.9046 102.735C30.0144 103.588 28.7902 104.144 27.529 104.256C16.4379 105.331 8.98198 100.287 4.30812 96.3918C-1.81241 91.3099 0.301943 84.67 0.561602 83.9281C0.784167 83.2233 11.0592 64.3795 16.2153 61.412C19.8135 59.3718 26.4533 40.4538 27.492 35.3348C28.4193 30.5868 34.9108 25.0226 40.104 20.5343L40.5491 20.1262C42.2925 18.6425 42.4038 16.899 42.6264 14.4879C42.886 11.4462 43.1828 7.62549 46.8922 3.43386C49.2291 0.763079 51.566 -0.349745 53.7917 0.0953849C56.7221 0.688891 58.243 3.8048 58.6881 4.91762L68.7777 15.1927C69.4454 15.8975 70.3357 16.3055 71.263 16.4168C80.2398 17.3071 95.1516 22.7228 106.243 31.2916C120.524 42.3827 129.204 57.0349 132.765 76.2125C136.4 95.7241 128.685 124.695 126.348 132.818C135.176 136.305 141 144.8 141 154.37ZM37.4332 131.52C45.0004 130.185 77.9771 125.362 123.863 132.188C126.162 124.324 133.841 95.7241 130.28 76.6577C126.83 58.1477 118.447 43.9777 104.685 33.3317C93.9646 25.0226 79.6092 19.7924 71.0034 18.9392C69.4825 18.7908 68.0729 18.086 66.9601 16.9732L56.4996 6.3272L56.3883 6.06754C56.277 5.73369 55.2384 2.98873 53.3095 2.58069C51.6773 2.28394 49.971 3.7677 48.784 5.10309C45.6681 8.70122 45.4084 11.7429 45.1488 14.6734C44.9262 17.27 44.7407 19.9037 42.2183 22.0551L41.7732 22.4631C37.359 26.2467 30.7562 31.9592 29.9773 35.817C29.2354 39.4894 22.4842 60.7443 17.4765 63.6376C13.2478 66.0488 3.49205 83.5201 2.93564 84.7813C2.75016 85.3377 1.15511 90.4567 5.94025 94.4258C10.2432 98.0239 17.1427 102.698 27.2694 101.733C27.9742 101.696 28.6419 101.362 29.1612 100.88C30.5337 99.5819 33.2045 96.7998 35.5414 92.7194C37.9896 88.4165 40.7716 88.5278 43.9617 88.6391C45.7052 88.7133 47.7083 88.7875 50.1194 88.194C56.3883 86.636 68.8148 73.616 70.2244 72.1322C70.5583 71.7983 71.0405 71.5758 71.5227 71.5758C71.9307 71.5758 72.3388 71.7242 72.6726 72.0209C73.4145 72.6515 73.6 72.9112 73.8967 73.6531C73.9338 73.8385 74.0451 74.0611 74.1935 74.3578C76.0111 78.5866 76.3078 85.1522 71.7082 91.0502C68.481 95.2418 64.2893 98.6545 59.838 102.29C53.7546 107.223 47.4857 112.305 42.8489 119.909C41.4393 122.061 38.1009 127.736 37.4332 131.52ZM138.478 154.37C138.478 145.541 132.839 137.678 124.456 134.821C72.6726 126.994 37.3219 134.079 36.3204 134.302C27.0097 136.528 20.4812 144.8 20.4812 154.37V163.272C20.4812 164.979 21.8907 166.388 23.5971 166.388H135.362C137.068 166.388 138.478 164.979 138.478 163.272V154.37Z" fill="black"/>
<path d="M123.861 132.15C77.9752 125.325 44.9985 130.147 37.4313 131.483C38.099 127.699 41.4375 122.024 42.847 119.872C47.4838 112.268 53.7527 107.186 59.8362 102.252C64.2875 98.6172 68.4791 95.2045 71.7063 91.0129C76.306 85.1149 76.0092 78.5492 74.1916 74.3576C74.0432 74.0238 73.9319 73.8012 73.8948 73.6157C73.5981 72.8738 73.4126 72.6142 72.6707 71.9836C72.3369 71.6868 71.9289 71.5755 71.5208 71.5755C71.0386 71.5755 70.5564 71.761 70.2225 72.132C68.813 73.5786 56.3864 86.5987 50.1175 88.1566C47.7064 88.7501 45.7033 88.6759 43.9599 88.6018C40.7698 88.4905 37.9877 88.3792 35.5395 92.6821C33.2026 96.7625 30.5318 99.5445 29.1593 100.843C28.64 101.325 27.9723 101.659 27.2675 101.696C17.1408 102.66 10.2413 97.9866 5.93839 94.3884C1.15325 90.4194 2.7483 85.3004 2.93377 84.7811C3.49019 83.4828 13.2459 66.0114 17.4747 63.6003C22.4824 60.707 29.2335 39.452 29.9754 35.7797C30.7544 31.9219 37.3571 26.2094 41.7713 22.4258L42.2165 22.0178C44.7389 19.8663 44.9243 17.2326 45.1469 14.6731C45.4066 11.7056 45.6662 8.6639 48.7821 5.10286C49.9691 3.76747 51.6755 2.24661 53.3076 2.54337C55.2365 2.9514 56.2751 5.69637 56.3864 6.03022L56.4977 6.28987L66.9582 16.973C68.0711 18.0487 69.4806 18.7535 71.0015 18.9019C79.6073 19.7921 93.9628 25.0224 104.683 33.2944C118.445 43.9404 126.828 58.1104 130.278 76.6204C133.839 95.6867 126.16 124.286 123.861 132.15Z" fill="#F8F8F8"/>
<path d="M47.9319 40.4138C47.9319 40.4138 44.7789 44.3829 43.7773 49.1309C43.7773 49.1309 46.5965 47.2762 54.0524 48.2036C61.6196 49.1309 60.6923 40.5993 57.9473 38.7446C56.7232 37.9285 52.3461 35.369 47.9319 40.4138Z" fill="#231F20"/>
<path d="M92.6605 25.8008C92.6605 25.8008 120.815 48.354 115.919 76.2859C111.022 104.218 95.1829 118.054 92.2896 123.507C90.6203 126.697 91.5106 128.997 91.5106 128.997C91.5106 128.997 110.095 129.85 123.857 132.15C123.857 132.15 135.022 101.844 129.977 75.6182C129.977 75.6182 127.529 57.0711 115.028 43.235C115.028 43.235 106.571 32.0326 92.6605 25.8008Z" fill="#C1C1C1"/>
<path d="M138.473 154.369V163.272C138.473 164.978 137.063 166.388 135.357 166.388H23.5925C21.8861 166.388 20.4766 164.978 20.4766 163.272V154.369C20.4766 144.799 27.0051 136.527 36.3158 134.301C37.3173 134.079 72.668 126.994 124.451 134.82C132.835 137.677 138.473 145.541 138.473 154.369Z" fill="#F8F8F8"/>
<path d="M136.924 146.468C135.069 145.133 133.288 144.947 133.288 144.947C124.497 141.943 113.369 140.236 107.545 139.865C101.684 139.457 42.074 138.307 29.5362 142.647C27.1622 143.463 24.7881 144.391 22.5254 145.392C25.1591 139.939 30.0926 135.785 36.3244 134.301C37.326 134.079 72.6766 126.994 124.46 134.82C130.21 136.786 134.661 141.089 136.924 146.468Z" fill="white"/>
<path d="M70.5918 71.8382C70.5918 71.8382 78.4558 63.3065 79.4944 57.1489C80.4959 50.9542 82.2023 62.0453 81.3491 65.7548C80.4959 69.5013 78.4928 82.1504 73.7448 87.7887C73.7448 87.7887 75.4511 84.6728 75.414 80.9634C75.3769 77.4394 74.8576 75.4734 73.1513 72.543C72.1868 70.9479 70.5918 71.8382 70.5918 71.8382Z" fill="#C1C1C1"/>
<path d="M29.1621 100.693C29.1621 100.693 36.989 83.1471 39.2888 83.0729C41.6257 83.0358 52.4943 84.6309 56.7972 84.4454C56.7972 84.4454 52.6798 90.0466 41.0693 88.6741C41.0693 88.6741 37.805 89.0451 34.6891 94.127C31.6845 99.0605 29.4218 100.544 29.1621 100.693Z" fill="#C1C1C1"/>
</svg>
