<svg width="135" height="171" viewBox="0 0 135 171" fill="none" xmlns="http://www.w3.org/2000/svg">
<path fill-rule="evenodd" clip-rule="evenodd" d="M134.229 168.82L134.008 170.062H0.751665L0.574222 168.776C-1.82039 152.723 3.85575 142.701 6.91554 137.291C10.9509 130.24 16.1392 126.427 21.638 122.391C26.6489 118.711 31.7929 114.941 36.9813 108.201C42.1253 101.594 45.8946 93.8778 48.2005 85.3636H34.631C31.6599 85.3636 29.0879 83.3237 28.3783 80.4413L26.6489 73.4792C26.0725 70.109 27.7132 66.7831 30.7286 65.1424L44.4312 57.6925C37.9125 51.3955 34.1875 42.704 34.1875 33.5689C34.1875 15.0772 49.2204 0 67.7122 0C86.2039 0 101.281 15.0772 101.281 33.5689C101.281 43.0144 97.3344 51.8833 90.4609 58.2246L103.011 64.6102C106.336 66.2953 108.066 70.1533 107.135 73.7896L105.538 80.397C104.829 83.3237 102.257 85.3636 99.2412 85.3636H87.4456C88.9533 93.3456 91.7913 100.529 96.004 106.738C101.325 114.542 107.268 118.711 113.032 122.746C119.063 127.003 124.784 130.994 128.908 138.622C131.702 143.899 136.979 153.654 134.229 168.82ZM126.247 140.085C122.434 133.078 117.023 129.265 111.259 125.229C105.583 121.238 99.1082 116.715 93.5208 108.423C88.7316 101.416 85.5831 93.2126 84.1197 84.0776L85.6274 82.3038H99.2412C100.838 82.3038 102.212 81.2395 102.567 79.6874L104.208 73.0357C104.784 70.7742 103.72 68.3795 101.636 67.3153L87.0464 59.9097L86.7804 57.3821C94.0529 51.5286 98.2213 42.8813 98.2213 33.5689C98.2213 16.718 84.5632 3.05978 67.7122 3.05978C50.9055 3.05978 37.203 16.718 37.203 33.5689C37.203 42.5266 41.1496 51.0408 48.0231 56.8499L47.7571 59.3332L32.192 67.8031C30.3295 68.823 29.3096 70.8629 29.62 72.9471L31.3051 79.7318C31.7042 81.2395 33.0346 82.3038 34.631 82.3038H50.196L51.6593 84.1663C49.309 93.9221 45.185 102.614 39.4202 110.064C33.9215 117.114 28.3341 121.238 23.4561 124.83C17.9574 128.821 13.2568 132.28 9.57622 138.799C6.60512 144.076 1.63852 152.812 3.36796 167.002H131.436C133.52 153.654 128.952 145.185 126.247 140.085Z" fill="#231F20"/>
<path d="M131.436 167.003H3.36829C1.63885 152.813 6.60546 144.077 9.57655 138.8C13.2572 132.281 17.9577 128.822 23.4565 124.831C28.3344 121.239 33.9218 117.115 39.4206 110.064C45.1854 102.614 49.3094 93.9229 51.6596 84.167L50.1964 82.3046H34.6313C33.0349 82.3046 31.7046 81.2403 31.3055 79.7326L29.6203 72.9478C29.3099 70.8636 30.3299 68.8238 32.1924 67.8038L47.7574 59.334L48.0234 56.8507C41.15 51.0415 37.2033 42.5273 37.2033 33.5697C37.2033 16.7187 50.9059 3.06055 67.7125 3.06055C84.5635 3.06055 98.2216 16.7187 98.2216 33.5697C98.2216 42.8821 94.0533 51.5293 86.7807 57.3828L87.0467 59.9105L101.636 67.316C103.72 68.3803 104.785 70.7749 104.208 73.0365L102.567 79.6882C102.213 81.2403 100.838 82.3046 99.2415 82.3046H85.6277L84.1201 84.0783C85.5834 93.2133 88.7319 101.417 93.5211 108.424C99.1086 116.716 105.583 121.239 111.259 125.23C117.024 129.266 122.434 133.079 126.248 140.086C128.953 145.185 133.52 153.655 131.436 167.003Z" fill="#222222"/>
<path d="M82.5234 6.87305C82.5234 6.87305 111.658 41.2845 64.9629 57.4704L86.7806 57.3373C86.7806 57.3373 98.4431 48.5127 98.2214 33.5686C98.2214 33.5686 99.3301 16.6732 82.5234 6.87305Z" fill="#464646"/>
<path d="M87.046 59.9102C87.046 59.9102 100.793 74.5883 85.627 82.3042H99.2408C99.2408 82.3042 101.901 82.5703 102.611 79.6879C103.276 76.8055 104.207 73.0362 104.207 73.0362C104.252 72.7258 104.385 71.9276 104.34 71.2624C104.163 69.533 104.074 69.7547 102.655 68.0252C100.482 66.4732 95.5158 64.522 87.046 59.9102Z" fill="#464646"/>
<path d="M50.1953 82.3047H85.6267C85.6267 82.3047 85.0946 82.9699 84.119 84.0785C84.5625 87.227 85.0946 90.198 89.4404 101.329C93.9192 110.996 98.1763 115.386 111.613 125.452C117.732 130.02 119.949 131.971 119.949 131.971C107.356 128.645 89.396 122.126 71.2591 108.645C62.5675 102.215 55.6054 95.5194 50.1953 89.4442L51.6586 84.1672L50.1953 82.3047Z" fill="#464646"/>
</svg>
