<svg width="332" height="461" viewBox="0 0 332 461" fill="none" xmlns="http://www.w3.org/2000/svg">
<path fill-rule="evenodd" clip-rule="evenodd" d="M331.403 431.298V450.898C331.403 456.298 327.003 460.698 321.603 460.698H10.6028C5.20278 460.698 0.802734 456.298 0.802734 450.898V431.298C0.802734 391.198 33.4027 358.498 73.5027 358.398C74.4027 358.298 75.4027 358.298 76.3027 358.198C15.7027 284.898 39.6028 203.898 41.6028 197.598C47.8028 146.298 105.303 90.9984 127.303 71.5984C121.803 63.9984 118.803 54.7984 118.803 45.3984C118.803 20.5984 139.003 0.398438 163.803 0.398438C188.603 0.398438 208.703 20.5984 208.703 45.3984C208.703 63.3984 197.703 79.7984 181.203 86.6984C155.003 129.998 151.003 219.698 150.403 238.598H188.503C188.103 139.298 219.103 94.1984 220.403 92.3984L222.903 88.9984L225.703 91.9984C306.403 179.198 302.003 224.598 301.203 229.698C302.703 293.398 274.603 337.898 258.203 358.398C258.403 358.398 258.503 358.398 258.703 358.398C298.803 358.498 331.403 391.198 331.403 431.298ZM84.7028 357.498C110.403 355.398 136.403 354.198 162.203 354.098C191.403 353.998 220.803 355.198 249.903 357.598C265.103 339.798 296.003 295.298 294.303 229.598V229.198L294.403 228.798C294.503 228.398 301.703 185.398 223.703 99.9984C216.403 112.498 194.403 158.498 195.403 241.898V245.298L143.403 245.598L143.503 241.998C143.503 237.498 145.203 131.198 176.203 81.8984L177.403 80.9984C192.103 75.3984 201.903 61.0984 201.903 45.3984C201.903 24.3984 184.803 7.29844 163.803 7.29844C142.803 7.29844 125.703 24.3984 125.703 45.3984C125.703 54.6984 129.103 63.5984 135.203 70.5984L134.803 74.0984C121.403 85.5984 54.5027 145.898 48.4027 198.698L48.2028 199.498C47.9028 200.298 20.5028 283.798 84.7028 357.498ZM324.603 431.298C324.603 394.898 295.003 365.298 258.503 365.298L258.203 365.198C226.503 362.198 194.203 360.798 162.203 360.898C132.903 360.998 103.203 362.498 74.0027 365.198L73.7028 365.298C37.3028 365.298 7.60278 394.898 7.60278 431.298V450.898C7.60278 452.498 9.00278 453.898 10.6028 453.898H321.603C323.303 453.898 324.603 452.498 324.603 450.898V431.298Z" fill="black"/>
<path d="M324.604 431.3V450.9C324.604 452.5 323.304 453.9 321.604 453.9H10.6035C9.00352 453.9 7.60352 452.5 7.60352 450.9V431.3C7.60352 394.9 37.3035 365.3 73.7035 365.3L74.0034 365.2C103.203 362.5 132.903 361 162.203 360.9C194.203 360.8 226.503 362.2 258.203 365.2L258.503 365.3C295.003 365.3 324.604 394.9 324.604 431.3Z" fill="#E8B128"/>
<path d="M294.302 229.199V229.599C296.002 295.299 265.102 339.799 249.902 357.599C220.802 355.199 191.402 353.999 162.202 354.099C136.402 354.199 110.402 355.399 84.7023 357.499C20.5023 283.799 47.9023 200.299 48.2023 199.499L48.4023 198.699C54.5023 145.899 121.402 85.5988 134.802 74.0988L135.202 70.5988C129.102 63.5988 125.702 54.6988 125.702 45.3988C125.702 24.3988 142.802 7.29883 163.802 7.29883C184.802 7.29883 201.902 24.3988 201.902 45.3988C201.902 61.0988 192.102 75.3988 177.402 80.9988L176.202 81.8988C145.202 131.199 143.502 237.499 143.502 241.999L143.402 245.599L195.402 245.299V241.899C194.402 158.499 216.402 112.499 223.702 99.9988C301.702 185.399 294.502 228.399 294.402 228.799L294.302 229.199Z" fill="#E8B128"/>
<path d="M259.803 144.398C264.203 152.098 292.603 203.598 271.303 265.498C249.903 327.798 195.204 350.998 187.104 354.298L249.903 357.598C249.903 357.598 272.903 331.898 284.303 296.398C294.603 264.598 297.703 222.798 291.003 204.198C283.503 183.598 278.803 171.698 259.803 144.398Z" fill="#EFD63C"/>
<path d="M317.602 401.7C311.502 399.4 304.802 397.1 297.702 394.6C269.202 384.7 137.602 388.2 70.002 390.5C41.902 391.5 23.402 399.7 11.502 409C20.702 383.5 45.102 365.3 73.702 365.3L74.002 365.2C103.202 362.5 132.902 361 162.202 360.9C194.202 360.8 226.502 362.2 258.202 365.2L258.502 365.3C284.302 365.3 306.702 380.1 317.602 401.7Z" fill="#F9ED61"/>
<path d="M179.804 10.7988C179.804 10.7988 201.204 31.4988 188.604 55.0988C176.104 78.5988 148.504 88.5988 138.104 128.199C127.604 167.799 132.304 182.499 143.404 245.599L146.604 193.399C146.604 193.399 152.804 141.199 161.004 116.699C169.804 93.6988 174.904 82.1988 178.304 80.5988C182.804 79.2988 191.404 73.6988 195.704 66.0988C200.304 58.6988 203.004 50.6988 201.704 42.0988C200.204 31.7988 197.004 19.5988 179.804 10.7988Z" fill="#EFD63C"/>
<path d="M160.003 7.5C160.003 7.5 137.803 10.3 129.803 28.2C129.803 28.2 118.103 51.5 135.203 70.6L134.803 74.1L131.503 77L128.603 79.6C127.303 80.6 121.603 85.4 111.703 95.8C100.303 107.8 68.7034 141.6 59.8034 163.8C50.9034 186 38.5034 217.5 42.1034 248.7C45.7034 279.9 46.1034 281.7 46.1034 281.7C47.6034 270.3 50.1034 255.2 54.6034 237.8C58.5034 222.4 65.0034 191.7 82.3034 159.3C98.1034 129.5 118.103 102 121.803 97.4C127.403 90.1 136.003 75.1 136.003 75.1C136.003 75 136.003 70.4 136.003 70.4C136.003 70.7 116.603 26.1 160.003 7.5Z" fill="#F9ED61"/>
</svg>
