<svg width="434" height="468" viewBox="0 0 434 468" fill="none" xmlns="http://www.w3.org/2000/svg">
<path fill-rule="evenodd" clip-rule="evenodd" d="M177.369 223.098L177.069 291.998C177.069 297.698 172.369 302.298 166.769 302.298H162.069C149.969 302.298 138.469 297.498 129.769 288.898C112.569 271.898 92.2688 246.198 94.0688 220.998C94.5688 214.298 98.6688 207.898 105.369 203.198C114.869 196.598 136.069 188.898 170.769 210.798C174.869 213.498 177.469 218.198 177.369 223.098ZM170.569 223.098C170.569 220.498 169.269 217.998 167.069 216.598C150.969 206.398 138.369 203.198 128.769 203.198C119.569 203.198 113.169 206.098 109.269 208.798C104.269 212.298 101.269 216.898 100.969 221.498C99.1687 245.298 121.269 270.898 134.669 284.098C141.969 291.398 151.769 295.398 162.069 295.398H166.769C168.669 295.398 170.269 293.898 170.269 291.998L170.569 223.098Z" fill="black"/>
<path fill-rule="evenodd" clip-rule="evenodd" d="M304.068 288.998C299.668 293.298 294.668 296.598 289.268 298.798C283.768 301.098 277.868 302.298 271.768 302.298H267.068C261.468 302.298 256.768 297.698 256.768 291.998L256.468 223.098C256.368 218.098 258.968 213.498 263.068 210.798C297.868 188.898 318.968 196.598 328.468 203.198C335.168 207.898 339.268 214.298 339.768 220.998C341.568 246.198 321.368 271.898 304.068 288.998ZM332.868 221.498C332.568 216.898 329.568 212.298 324.568 208.798C320.568 206.098 314.268 203.198 305.068 203.198C295.468 203.198 282.868 206.398 266.768 216.598C264.568 217.998 263.268 220.498 263.268 223.098L263.568 291.998C263.568 293.898 265.168 295.398 267.068 295.398H271.768C282.068 295.398 291.868 291.398 299.168 284.098H299.268C312.568 270.898 334.668 245.298 332.868 221.498Z" fill="black"/>
<path fill-rule="evenodd" clip-rule="evenodd" d="M399.368 304.098L399.268 304.298L337.068 371.098C366.268 381.298 383.568 403.898 383.568 432.398V454.098C383.568 461.498 377.668 467.498 370.268 467.498H63.368C55.968 467.498 50.0679 461.498 50.0679 454.098V432.398C50.0679 403.498 67.868 380.298 96.868 370.598L35.2679 304.098C-31.9321 220.698 19.3679 159.198 22.0679 156.098C71.5679 93.1984 151.068 121.198 174.368 131.198C175.168 131.598 175.968 131.398 176.368 131.198C176.668 130.998 177.368 130.598 177.568 129.598L184.268 101.898H149.468V39.9984H186.668V0.398438H247.968V39.9984H285.268V101.898H250.468L257.068 129.598C257.268 130.598 257.968 130.998 258.368 131.198C258.668 131.398 259.468 131.598 260.368 131.198C283.568 121.198 363.068 93.1984 412.568 156.098C415.268 159.198 466.568 220.698 399.368 304.098ZM329.968 375.998C325.968 374.798 321.668 373.898 317.168 373.198C284.068 368.498 250.368 366.098 216.868 366.098H214.768C179.868 366.298 148.368 369.698 120.668 372.798L116.368 373.298C112.068 373.798 107.868 374.498 103.968 375.598C74.9678 383.298 56.868 405.098 56.868 432.398V454.098C56.868 457.698 59.768 460.598 63.368 460.598H370.268C373.868 460.598 376.768 457.698 376.768 454.098V432.398C376.768 405.498 359.268 384.398 329.968 375.998ZM407.368 160.598L407.268 160.398C360.768 101.198 285.168 127.898 263.068 137.498C260.568 138.598 257.768 138.498 255.268 137.298C252.868 136.098 251.068 133.898 250.468 131.198L241.768 95.0984H278.368V46.7984H241.068V7.19844H193.568V46.7984H156.268V95.0984H192.868L184.268 131.198C183.568 133.898 181.868 136.098 179.368 137.298C176.968 138.498 174.068 138.598 171.568 137.498C149.468 127.898 73.8678 101.198 27.4678 160.398L27.2679 160.598C25.1679 162.898 -24.2321 219.298 40.5679 299.698L104.168 368.498C105.168 368.198 106.168 367.998 107.268 367.798C107.868 367.698 108.568 367.498 109.268 367.398C111.335 366.998 113.435 366.698 115.568 366.498L119.868 365.998C147.868 362.898 179.568 359.398 214.768 359.298H216.868C219.668 359.298 222.468 359.298 225.168 359.398C226.168 359.398 227.135 359.398 228.068 359.398C249.268 359.698 270.568 360.998 291.668 363.198C291.935 363.265 292.201 363.298 292.468 363.298C296.201 363.698 299.901 364.132 303.568 364.598C304.168 364.665 304.768 364.732 305.368 364.798C309.635 365.332 313.901 365.898 318.168 366.498C320.368 366.832 322.535 367.198 324.668 367.598C325.335 367.798 326.001 367.965 326.668 368.098C327.768 368.298 328.768 368.598 329.768 368.798L394.168 299.698C458.868 219.298 409.568 162.898 407.368 160.598Z" fill="black"/>
<path d="M376.769 432.398V454.098C376.769 457.698 373.869 460.598 370.269 460.598H63.3691C59.7691 460.598 56.8691 457.698 56.8691 454.098V432.398C56.8691 405.098 74.969 383.298 103.969 375.598C107.869 374.498 112.069 373.798 116.369 373.298L120.669 372.798C148.369 369.698 179.869 366.298 214.769 366.098H216.869C250.369 366.098 284.069 368.498 317.169 373.198C321.669 373.898 325.969 374.798 329.969 375.998C359.269 384.398 376.769 405.498 376.769 432.398Z" fill="#E8B128"/>
<path fill-rule="evenodd" clip-rule="evenodd" d="M394.169 299.699L329.769 368.799C328.769 368.599 327.769 368.299 326.669 368.099C326.002 367.966 325.336 367.799 324.669 367.599C322.536 367.199 320.369 366.833 318.169 366.499C313.902 365.899 309.636 365.333 305.369 364.799C304.769 364.733 304.169 364.666 303.569 364.599C299.902 364.133 296.202 363.699 292.469 363.299C292.202 363.299 291.936 363.266 291.669 363.199C270.569 360.999 249.269 359.699 228.069 359.399C227.136 359.399 226.169 359.399 225.169 359.399C222.469 359.299 219.669 359.299 216.869 359.299H214.769C179.569 359.399 147.869 362.899 119.869 365.999L115.569 366.499C113.436 366.699 111.336 366.999 109.269 367.399C108.569 367.499 107.869 367.699 107.269 367.799C106.169 367.999 105.169 368.199 104.169 368.499L40.569 299.699C-24.231 219.299 25.169 162.899 27.269 160.599L27.4689 160.399C73.8689 101.199 149.469 127.899 171.569 137.499C174.069 138.599 176.969 138.499 179.369 137.299C181.869 136.099 183.569 133.899 184.269 131.199L192.869 95.0992H156.269V46.7992H193.569V7.19922H241.069V46.7992H278.369V95.0992H241.769L250.469 131.199C251.069 133.899 252.869 136.099 255.269 137.299C257.769 138.499 260.569 138.599 263.069 137.499C285.169 127.899 360.769 101.199 407.269 160.399L407.369 160.599C409.569 162.899 458.869 219.299 394.169 299.699ZM177.369 223.099C177.469 218.199 174.869 213.499 170.769 210.799C136.069 188.899 114.869 196.599 105.369 203.199C98.6691 207.899 94.569 214.299 94.069 220.999C92.269 246.199 112.569 271.899 129.769 288.899C138.469 297.499 149.969 302.299 162.069 302.299H166.769C172.369 302.299 177.069 297.699 177.069 291.999L177.369 223.099ZM339.769 220.999C339.269 214.299 335.069 207.899 328.469 203.199C318.969 196.599 297.769 188.899 263.069 210.799C258.969 213.499 256.369 218.199 256.469 223.099L256.769 291.999C256.769 297.699 261.369 302.299 267.069 302.299H271.769C277.869 302.299 283.769 301.099 289.169 298.799C294.669 296.599 299.669 293.299 304.069 288.999C321.269 271.899 341.569 246.199 339.769 220.999Z" fill="#E8B128"/>
<path d="M105.869 123.198C98.8692 124.998 53.5692 137.998 30.1692 184.498C8.66924 227.398 21.2692 267.698 23.8692 275.398C23.8692 275.398 -6.73085 229.898 15.0691 180.498C15.0691 180.498 40.3692 121.798 105.869 123.198Z" fill="#F9ED61"/>
<path d="M156.268 95.0992L160.168 90.1992V51.6992H197.168V12.6992H237.168L241.068 7.19922H193.568V46.7992H156.268V95.0992Z" fill="#F9ED61"/>
<path d="M241.068 46.7969L238.068 52.4969H278.368V46.7969H241.068Z" fill="#F9ED61"/>
<path d="M397.168 149.297C397.168 149.297 437.268 197.697 403.268 257.297C389.068 282.197 368.568 306.997 346.168 325.597C322.268 345.597 298.168 363.897 298.168 363.897L329.768 368.797L386.768 307.597C386.768 307.597 424.468 268.297 427.068 225.897C429.668 182.797 407.568 157.897 397.168 149.297Z" fill="#EFD63C"/>
<path d="M370.468 406.298C325.868 393.898 234.768 394.598 156.268 395.598C100.068 396.298 71.9676 408.998 58.2676 419.698C62.9676 398.498 79.5675 382.098 103.968 375.598C107.868 374.498 112.068 373.798 116.368 373.298L120.668 372.798C148.368 369.698 179.868 366.298 214.768 366.098H216.868C250.368 366.098 284.068 368.498 317.168 373.198C321.668 373.898 325.968 374.798 329.968 375.998C348.868 381.398 362.868 392.098 370.468 406.298Z" fill="#F9ED61"/>
</svg>
