<svg width="381" height="456" viewBox="0 0 381 456" fill="none" xmlns="http://www.w3.org/2000/svg">
<path fill-rule="evenodd" clip-rule="evenodd" d="M380.917 416.556V440.456C380.917 448.856 374.117 455.756 365.717 455.756H64.4168C56.0168 455.756 49.2168 448.856 49.2168 440.456V416.556C49.2168 388.356 67.7168 364.056 94.6168 356.356C95.8168 342.656 108.917 322.356 110.517 319.956C123.617 298.556 141.017 284.456 157.717 270.756C169.517 261.256 180.517 252.356 188.817 241.656C199.317 228.056 198.617 213.056 194.517 203.556C194.117 202.656 193.817 201.856 193.617 201.356C193.55 201.289 193.517 201.222 193.517 201.156C184.617 210.556 154.817 240.456 137.517 244.756C130.117 246.656 124.017 246.356 119.017 246.156C110.917 245.856 107.117 245.656 102.517 253.656C95.8167 265.556 88.1168 273.556 84.1168 277.256C81.7168 279.656 78.4167 281.156 75.0167 281.456C45.1167 284.356 25.0168 270.656 12.4168 260.156C-4.08324 246.456 1.61673 228.656 2.31673 226.656C2.91673 224.756 30.6167 173.856 44.5167 165.956C54.2167 160.356 72.1168 109.356 74.9168 95.5556C77.5168 82.8556 94.9168 67.7556 108.917 55.7556L110.117 54.6556C114.817 50.5556 115.217 45.9556 115.717 39.4556C116.417 31.1556 117.317 20.9556 127.217 9.65558C133.517 2.45558 139.817 -0.54442 145.917 0.65558C153.817 2.25558 157.817 10.6556 159.017 13.6556L186.217 41.3556C188.017 43.1556 190.417 44.3556 192.917 44.5556C217.117 47.0556 257.317 61.6556 287.217 84.7556C325.717 114.556 349.117 154.156 358.717 205.756C368.617 258.356 347.717 336.556 341.417 358.356C365.217 367.756 380.917 390.756 380.917 416.556ZM101.717 354.856C122.117 351.356 211.017 338.356 334.817 356.656C340.917 335.556 361.617 258.356 352.017 206.956C342.717 157.156 320.217 118.856 283.017 90.1556C254.117 67.8556 215.517 53.7556 192.217 51.3556C188.217 50.9556 184.317 49.1556 181.417 46.1556L153.117 17.3556L152.817 16.6556C152.517 15.8556 149.717 8.35558 144.517 7.35558C140.217 6.45558 135.517 10.5556 132.317 14.1556C123.917 23.7556 123.217 31.9556 122.517 39.9556C122.017 46.8556 121.417 53.9556 114.617 59.7556L113.417 60.8556C101.517 71.0556 83.7168 86.4556 81.6168 96.9556C79.6168 106.756 61.4168 164.156 47.9168 171.856C36.5168 178.356 10.2168 225.456 8.71675 228.956C8.21675 230.456 3.91673 244.156 16.8167 254.956C28.4167 264.656 47.0167 277.256 74.3167 274.656C76.2167 274.456 78.1168 273.656 79.4168 272.356C83.1168 268.856 90.3168 261.356 96.6168 250.256C103.217 238.656 110.717 238.956 119.317 239.356C124.117 239.556 129.417 239.756 135.917 238.156C152.817 233.956 186.317 198.856 190.117 194.856C191.117 193.856 192.317 193.356 193.617 193.356C194.717 193.356 195.817 193.756 196.717 194.456C198.817 196.156 199.217 196.856 200.017 198.856C200.217 199.356 200.417 199.956 200.817 200.856C205.717 212.156 206.517 229.956 194.217 245.856C185.417 257.156 174.117 266.356 162.117 276.056C145.717 289.356 128.817 303.156 116.317 323.656C112.517 329.456 103.517 344.756 101.717 354.856ZM374.117 416.556C374.117 392.656 358.917 371.556 336.317 363.856C196.817 342.656 101.417 361.856 98.7168 362.356C73.6168 368.456 56.0167 390.656 56.0167 416.556V440.456C56.0167 445.156 59.8168 448.856 64.4168 448.856H365.717C370.317 448.856 374.117 445.156 374.117 440.456V416.556Z" fill="black"/>
<path d="M334.816 356.555C211.016 338.255 122.116 351.255 101.716 354.755C103.516 344.655 112.516 329.355 116.316 323.555C128.816 303.055 145.716 289.255 162.116 275.955C174.116 266.255 185.416 257.055 194.216 245.755C206.516 229.855 205.716 212.055 200.816 200.755C200.416 199.855 200.216 199.255 200.016 198.755C199.216 196.755 198.816 196.055 196.716 194.355C195.816 193.655 194.716 193.255 193.616 193.255C192.316 193.255 191.116 193.755 190.116 194.755C186.316 198.755 152.816 233.855 135.916 238.055C129.416 239.655 124.116 239.455 119.316 239.255C110.716 238.855 103.216 238.555 96.616 250.255C90.316 261.255 83.116 268.755 79.416 272.255C78.116 273.555 76.216 274.355 74.316 274.555C47.016 277.155 28.416 264.555 16.816 254.855C3.91598 244.055 8.216 230.355 8.716 228.855C10.216 225.355 36.516 178.255 47.916 171.755C61.416 164.055 79.616 106.655 81.616 96.8548C83.716 86.3548 101.516 70.9548 113.416 60.7547L114.616 59.6547C121.416 53.8547 122.016 46.7547 122.516 39.8547C123.216 31.8547 123.916 23.6547 132.316 14.0547C135.516 10.4547 140.216 6.35475 144.516 7.25475C149.716 8.25475 152.516 15.7547 152.816 16.5547L153.116 17.2547L181.416 46.0547C184.316 49.0547 188.216 50.8547 192.216 51.2547C215.516 53.6547 254.116 67.7547 283.016 90.0547C320.216 118.755 342.716 157.055 352.016 206.855C361.616 258.355 340.916 335.455 334.816 356.555Z" fill="#E8B128"/>
<path d="M130.016 109.356C130.016 109.356 121.516 119.956 118.816 132.856C118.816 132.856 126.416 127.756 146.516 130.256C166.916 132.856 164.416 109.756 157.016 104.856C153.716 102.656 141.916 95.7563 130.016 109.356Z" fill="#231F20"/>
<path d="M250.616 69.8555C250.616 69.8555 326.516 130.655 313.316 205.955C300.116 281.355 257.416 318.555 249.616 333.355C245.116 341.855 247.516 348.055 247.516 348.055C247.516 348.055 297.616 350.455 334.816 356.655C334.816 356.655 364.816 274.855 351.316 204.155C351.316 204.155 344.716 154.155 310.916 116.855C310.916 116.855 288.116 86.7555 250.616 69.8555Z" fill="#EFD63C"/>
<path d="M142.916 7.95459C142.916 7.95459 135.316 6.85459 126.716 22.6546C126.716 22.6546 123.616 29.8546 122.916 38.6546C122.216 47.5546 122.216 53.6546 113.616 60.8546C105.016 67.9546 97.4163 75.0546 97.4163 75.0546C97.4163 75.0546 86.2163 86.3546 83.0163 93.1546L80.0163 104.755L72.4163 127.255C72.4163 127.255 65.3163 145.155 64.5163 146.855C63.8163 148.655 57.8163 159.655 57.2163 160.955C56.7163 162.355 52.3163 169.555 46.2163 173.055C46.2163 173.055 43.0163 175.755 41.7163 177.455C40.3163 179.255 32.8163 188.755 31.7163 190.655C30.6163 192.655 15.7163 215.255 11.0163 224.555C10.0163 226.555 8.61626 228.255 8.01626 231.855C6.91626 236.355 56.0163 178.155 56.0163 178.155C56.0163 178.155 84.1163 137.555 87.9163 116.955C94.3163 82.0546 122.916 78.2546 128.316 57.4546C132.316 42.2546 134.616 44.0546 140.616 24.7546C144.616 12.0546 149.816 7.15459 142.916 7.95459Z" fill="#F9ED61"/>
<path d="M374.118 416.556V440.456C374.118 445.156 370.318 448.856 365.718 448.856H64.4176C59.8176 448.856 56.0176 445.156 56.0176 440.456V416.556C56.0176 390.656 73.6176 368.456 98.7176 362.356C101.418 361.856 196.818 342.656 336.318 363.856C358.918 371.556 374.118 392.656 374.118 416.556Z" fill="#E8B128"/>
<path d="M369.918 395.256C364.918 391.556 360.118 391.056 360.118 391.056C336.418 383.056 306.418 378.456 290.718 377.356C274.918 376.256 114.218 373.156 80.4176 384.856C74.0176 387.056 67.6176 389.656 61.5176 392.356C68.6176 377.656 82.0176 366.456 98.7176 362.356C101.418 361.856 196.818 342.656 336.318 363.856C351.818 369.056 363.918 380.756 369.918 395.256Z" fill="#F9ED61"/>
<path d="M191.117 194.056C191.117 194.056 212.417 171.056 215.117 154.356C217.817 137.656 222.517 167.556 220.117 177.656C217.817 187.756 212.417 221.856 199.717 237.056C199.717 237.056 204.217 228.556 204.117 218.656C204.017 209.056 202.617 203.756 198.017 195.956C195.417 191.656 191.117 194.056 191.117 194.056Z" fill="#EFD63C"/>
<path d="M79.416 271.756C79.416 271.756 100.516 224.456 106.816 224.356C113.016 224.156 142.316 228.556 153.916 228.056C153.916 228.056 142.916 243.056 111.516 239.356C111.516 239.356 102.716 240.356 94.316 254.056C86.216 267.456 80.116 271.356 79.416 271.756Z" fill="#EFD63C"/>
</svg>
