<svg width="306" height="384" viewBox="0 0 306 384" fill="none" xmlns="http://www.w3.org/2000/svg">
<path fill-rule="evenodd" clip-rule="evenodd" d="M303.456 380.998L302.956 383.798H2.45634L2.05619 380.898C-3.24381 344.798 9.55624 322.098 16.3562 309.998C25.4562 293.998 37.1562 285.398 49.5562 276.298C60.8562 268.098 72.4561 259.498 84.2561 244.398C95.7561 229.398 104.256 212.098 109.456 192.798H78.8562C72.1562 192.798 66.3561 188.298 64.7561 181.798L60.8562 166.098C59.5562 158.498 63.2562 150.898 70.0562 147.198L100.956 130.398C86.2563 116.198 77.8562 96.5984 77.8562 75.9984C77.8562 34.2984 111.856 0.398438 153.556 0.398438C195.256 0.398438 229.156 34.2984 229.156 75.9984C229.156 97.3984 220.256 117.298 204.756 131.598L233.056 145.998C240.556 149.898 244.456 158.598 242.356 166.698L238.756 181.698C237.156 188.198 231.356 192.798 224.656 192.798H197.956C201.356 210.798 207.756 227.098 217.356 241.098C229.256 258.598 242.656 267.998 255.656 277.098C269.256 286.698 282.156 295.698 291.456 312.998C297.856 324.798 309.656 346.898 303.456 380.998ZM285.456 316.198C276.956 300.398 264.656 291.798 251.756 282.698C238.856 273.698 224.256 263.498 211.656 244.898C200.856 228.998 193.756 210.598 190.556 189.898L193.856 185.998H224.656C228.156 185.998 231.256 183.498 232.156 180.098L235.756 165.098C237.056 159.898 234.656 154.498 229.956 152.098L197.056 135.398L196.556 129.698C212.956 116.598 222.356 96.9984 222.356 75.9984C222.356 38.0984 191.456 7.19844 153.556 7.19844C115.556 7.19844 84.7561 38.0984 84.7561 75.9984C84.7561 96.2984 93.5562 115.398 109.056 128.498L108.556 134.098L73.3562 153.298C69.1562 155.498 66.8562 160.198 67.5562 164.798L71.3562 180.098C72.2562 183.598 75.3562 185.998 78.8562 185.998H113.956L117.256 190.198C111.956 212.098 102.656 231.798 89.6563 248.598C77.2563 264.498 64.7563 273.698 53.6563 281.798C41.3563 290.898 30.6562 298.698 22.3562 313.398C15.6562 325.198 4.45624 344.898 8.35624 376.998H297.156C301.856 346.798 291.556 327.798 285.456 316.198Z" fill="#231F20"/>
<path d="M297.155 376.999H8.35488C4.45488 344.899 15.6549 325.199 22.3549 313.399C30.6549 298.699 41.3549 290.899 53.6549 281.799C64.7549 273.699 77.2549 264.499 89.6549 248.599C102.655 231.799 111.955 212.099 117.255 190.199L113.955 185.999H78.8549C75.3549 185.999 72.2549 183.599 71.3549 180.099L67.5548 164.799C66.8548 160.199 69.1549 155.499 73.3549 153.299L108.555 134.099L109.055 128.499C93.5548 115.399 84.7548 96.2992 84.7548 75.9992C84.7548 38.0992 115.555 7.19922 153.555 7.19922C191.455 7.19922 222.355 38.0992 222.355 75.9992C222.355 96.9992 212.955 116.599 196.555 129.699L197.055 135.399L229.955 152.099C234.655 154.499 237.055 159.899 235.755 165.099L232.155 180.099C231.255 183.499 228.155 185.999 224.655 185.999H193.855L190.555 189.899C193.755 210.599 200.855 228.999 211.655 244.899C224.255 263.499 238.855 273.699 251.755 282.699C264.655 291.799 276.955 300.399 285.455 316.199C291.555 327.799 301.855 346.799 297.155 376.999Z" fill="#E8B128"/>
<path d="M139.555 8.59922C139.555 8.59922 70.4549 24.5992 88.2549 97.8992C88.2549 97.8992 91.3549 41.0992 153.555 7.19922L139.555 8.59922Z" fill="#F9ED61"/>
<path d="M107.356 218.998C107.356 218.998 98.0557 247.498 68.6557 270.298C39.1557 293.098 24.5557 302.898 14.6557 328.498C4.85572 353.998 8.35567 376.998 8.35567 376.998C8.35567 376.998 10.2557 343.898 59.1557 308.998C108.056 273.998 109.056 243.098 107.356 218.998Z" fill="#F9ED61"/>
<path d="M108.455 134.098L75.9548 151.798C73.6548 153.098 72.1547 153.598 70.3547 155.598L68.5547 158.198H87.1548C89.5548 158.198 91.8547 157.098 93.3547 155.098C98.3547 148.598 108.455 134.098 108.455 134.098Z" fill="#F9ED61"/>
<path d="M186.856 15.7969C186.856 15.7969 252.556 93.4969 147.256 129.997L196.556 129.697C196.556 129.697 222.756 109.797 222.356 75.9969C222.356 75.9969 224.856 37.9969 186.856 15.7969Z" fill="#EFD63C"/>
<path d="M197.055 135.398C197.055 135.398 228.055 168.598 193.855 185.998H224.656C224.656 185.998 230.556 186.498 232.156 180.098C233.656 173.598 235.755 165.098 235.755 165.098C235.855 164.298 236.155 162.498 236.055 160.998C235.655 157.098 235.555 157.698 232.255 153.698C227.355 150.198 216.255 145.898 197.055 135.398Z" fill="#EFD63C"/>
<path d="M113.955 185.998H193.855C193.855 185.998 192.655 187.398 190.555 189.898C191.555 196.998 192.655 203.798 202.455 228.898C212.555 250.698 222.155 260.598 252.455 283.298C281.055 299.798 289.555 324.298 289.555 324.298C258.755 315.698 215.755 299.698 171.355 268.298C145.755 250.198 125.755 231.198 110.455 214.398L117.255 190.198L113.955 185.998Z" fill="#EFD63C"/>
</svg>
