<svg width="451" height="453" viewBox="0 0 451 453" fill="none" xmlns="http://www.w3.org/2000/svg">
<path fill-rule="evenodd" clip-rule="evenodd" d="M450.803 140.498C450.803 165.198 432.903 186.398 408.903 190.798L343.003 356.498C366.503 364.698 390.303 378.698 390.303 410.098V452.598H59.6027V410.098C59.6027 378.098 87.9027 363.298 110.903 355.098L46.8027 190.698C20.8027 188.098 0.802734 166.298 0.802734 139.898C0.802734 111.698 23.8027 88.6984 52.0027 88.6984C80.2027 88.6984 103.203 111.698 103.203 139.898C103.203 148.998 100.703 157.898 96.2028 165.598L137.903 210.598L140.803 98.0984C122.503 89.7984 110.903 71.7984 110.903 51.5984C110.903 23.3984 133.803 0.398438 162.003 0.398438C190.303 0.398438 213.203 23.3984 213.203 51.5984C213.203 65.9984 207.203 79.5984 196.603 89.2984L226.103 180.098L256.203 88.7984C246.003 79.1984 240.203 65.6984 240.203 51.5984C240.203 23.3984 263.103 0.398438 291.303 0.398438C319.503 0.398438 342.503 23.3984 342.503 51.5984C342.503 72.5984 329.703 91.3984 310.303 99.0984L316.403 206.898L353.703 162.998C350.303 156.098 348.503 148.298 348.503 140.498C348.503 112.298 371.403 89.2984 399.603 89.2984C427.903 89.2984 450.803 112.298 450.803 140.498ZM332.903 360.398C302.803 351.298 263.203 349.998 224.903 349.998C182.403 349.998 132.703 354.798 116.403 360.398C82.3027 371.998 66.5027 387.798 66.5027 410.098V445.698H383.403V410.098C383.403 406.698 383.103 403.498 382.503 400.498C378.603 381.998 362.903 369.498 332.903 360.398ZM444.003 140.498C444.003 115.998 424.103 96.0984 399.603 96.0984C375.203 96.0984 355.303 115.998 355.303 140.498C355.303 147.998 357.203 155.398 360.803 161.898L360.403 165.698L317.103 216.698C316.303 217.598 315.103 218.098 314.003 218.098C313.536 218.098 313.103 218.032 312.703 217.898C311.103 217.398 310.103 215.998 310.003 214.298L303.303 96.9984L305.703 93.4984C323.603 87.3984 335.703 70.5984 335.703 51.5984C335.703 27.0984 315.803 7.29844 291.303 7.29844C266.903 7.29844 247.003 27.0984 247.003 51.5984C247.003 64.4984 252.603 76.6984 262.403 85.1984L263.403 88.7984L229.903 190.498C229.403 192.098 227.803 193.198 226.103 193.198C224.403 193.198 222.803 192.098 222.303 190.398L189.403 89.2984L190.503 85.5984C200.603 77.0984 206.403 64.6984 206.403 51.5984C206.403 27.0984 186.503 7.29844 162.003 7.29844C137.603 7.29844 117.703 27.0984 117.703 51.5984C117.703 69.7984 128.603 85.9984 145.503 92.6984L147.603 95.9984L144.603 217.698C144.503 219.398 143.503 220.798 142.003 221.398C141.469 221.532 140.969 221.598 140.503 221.598C139.403 221.598 138.403 221.198 137.603 220.298L89.4027 168.398L89.0027 164.198C93.8027 156.998 96.3027 148.598 96.3027 139.898C96.3027 115.398 76.4027 95.5984 52.0027 95.5984C27.5027 95.5984 7.70276 115.398 7.70276 139.898C7.70276 163.398 26.0027 182.798 49.4027 184.098L52.4027 186.298L117.403 352.898C136.903 347.498 183.503 343.198 224.903 343.198C263.703 343.198 303.903 344.498 334.803 353.798C335.403 353.998 335.969 354.198 336.503 354.398L403.203 186.498L405.903 184.398C427.603 181.298 444.003 162.498 444.003 140.498Z" fill="#231F20"/>
<path d="M444.003 140.497C444.003 162.497 427.603 181.297 405.903 184.397L403.203 186.497L336.503 354.397C335.97 354.197 335.403 353.997 334.803 353.797C303.903 344.497 263.703 343.197 224.903 343.197C183.503 343.197 136.903 347.497 117.403 352.897L52.4031 186.297L49.4031 184.097C26.0031 182.797 7.70312 163.397 7.70312 139.897C7.70312 115.397 27.5031 95.5969 52.0031 95.5969C76.4031 95.5969 96.3031 115.397 96.3031 139.897C96.3031 148.597 93.8031 156.997 89.0031 164.197L89.4031 168.397L137.603 220.297C138.403 221.197 139.403 221.597 140.503 221.597C140.97 221.597 141.47 221.53 142.003 221.397C143.503 220.797 144.503 219.397 144.603 217.697L147.603 95.9969L145.503 92.6969C128.603 85.9969 117.703 69.7969 117.703 51.5969C117.703 27.0969 137.603 7.29688 162.003 7.29688C186.503 7.29688 206.403 27.0969 206.403 51.5969C206.403 64.6969 200.603 77.0969 190.503 85.5969L189.403 89.2969L222.303 190.397C222.803 192.097 224.403 193.197 226.103 193.197C227.803 193.197 229.403 192.097 229.903 190.497L263.403 88.7969L262.403 85.1969C252.603 76.6969 247.003 64.4969 247.003 51.5969C247.003 27.0969 266.903 7.29688 291.303 7.29688C315.803 7.29688 335.703 27.0969 335.703 51.5969C335.703 70.5969 323.603 87.3969 305.703 93.4969L303.303 96.9969L310.003 214.297C310.103 215.997 311.103 217.397 312.703 217.897C313.103 218.03 313.536 218.097 314.003 218.097C315.103 218.097 316.303 217.597 317.103 216.697L360.403 165.697L360.803 161.897C357.203 155.397 355.303 147.997 355.303 140.497C355.303 115.997 375.203 96.0969 399.603 96.0969C424.103 96.0969 444.003 115.997 444.003 140.497Z" fill="#E8B128"/>
<path d="M382.502 400.498C374.702 383.898 333.902 380.998 269.202 378.698C204.602 376.298 135.302 381.598 105.602 383.298C75.9019 385.098 66.502 410.098 66.502 410.098C66.502 387.798 82.302 371.998 116.402 360.398C132.702 354.798 182.402 349.998 224.902 349.998C263.202 349.998 302.802 351.298 332.902 360.398C362.902 369.498 378.602 381.998 382.502 400.498Z" fill="#F9ED61"/>
<path d="M162.003 7.29688C162.003 7.29688 124.003 7.29688 117.903 47.4969C117.903 47.4969 117.403 57.7969 120.503 67.1969C120.503 67.1969 117.903 30.0969 162.003 7.29688Z" fill="#F9ED61"/>
<path d="M290.903 7.29688C290.903 7.29688 263.403 7.29688 251.403 31.9969C246.903 41.2969 245.903 52.0969 248.103 62.1969C248.403 63.8969 249.303 65.5969 249.803 67.1969C249.803 67.1969 246.703 30.0969 290.903 7.29688Z" fill="#F9ED61"/>
<path d="M400.003 96.0981C400.003 96.0981 372.603 95.6981 360.203 120.298C355.503 129.598 354.403 140.298 356.403 150.498C356.703 152.098 357.603 153.798 358.103 155.498C358.103 155.498 355.503 118.298 400.003 96.0981Z" fill="#F9ED61"/>
<path d="M51.5015 95.5994C51.5015 95.5994 47.3016 95.4994 41.4016 96.7994C29.7016 99.3994 11.8016 108.799 7.70162 135.599C7.70162 135.599 7.2016 145.899 10.3016 155.299C10.3016 155.299 7.30155 118.399 51.5015 95.5994Z" fill="#F9ED61"/>
<path d="M429.303 107.598C429.303 107.598 440.903 155.898 396.203 166.098C396.203 166.098 390.903 167.298 388.303 174.798C385.703 182.398 353.103 244.098 308.803 295.398C264.603 346.598 234.303 343.198 234.303 343.198C234.303 343.198 277.103 340.798 336.503 354.298L403.203 186.498C403.203 186.498 405.303 184.898 405.903 184.398C406.503 183.898 436.603 182.298 443.503 146.698C443.503 146.698 448.503 126.498 429.303 107.598Z" fill="#EFD63C"/>
<path d="M383.402 445.699H66.502V410.099C66.502 410.099 75.9019 385.099 105.602 383.299C135.302 381.599 204.602 376.299 269.202 378.699C333.902 380.999 374.702 383.899 382.502 400.499L383.402 445.699Z" fill="#E8B128"/>
<path d="M79.0028 104.699C79.0028 104.699 88.1028 121.999 77.4028 139.899C67.1028 157.199 77.8028 171.499 84.4028 177.399C91.0028 183.199 109.103 189.599 109.103 189.599L89.4028 168.399L89.0028 164.199C89.0028 164.199 96.5028 154.999 96.3028 138.099C96.0028 121.299 84.7028 108.699 79.0028 104.699Z" fill="#EFD63C"/>
<path d="M193.702 20.498C193.702 20.498 196.802 50.798 180.402 67.198C159.102 88.598 208.502 147.998 208.502 147.998L189.402 89.298L190.502 85.598C190.502 85.598 197.102 80.398 201.702 71.398C208.102 58.998 211.402 39.598 193.702 20.498Z" fill="#EFD63C"/>
<path d="M325.303 23.0977C325.303 23.0977 329.603 56.5977 301.203 67.0977C272.903 77.5977 307.003 161.498 307.003 161.498L303.303 96.9977L305.703 93.4977C305.703 93.4977 322.703 88.8977 331.803 69.6977C340.803 50.4977 331.803 31.4977 325.303 23.0977Z" fill="#EFD63C"/>
</svg>
