<svg width="340" height="423" viewBox="0 0 340 423" fill="none" xmlns="http://www.w3.org/2000/svg">
<path fill-rule="evenodd" clip-rule="evenodd" d="M340.003 386.898V422.698H0.802734V386.898C0.802734 356.498 21.4027 330.898 49.4027 323.398L69.2027 146.298C46.6027 140.098 30.0027 119.398 29.9027 94.8984L24.7027 43.1984C23.8027 34.8984 26.5027 26.6984 32.1027 20.5984C37.6027 14.3984 45.5027 10.8984 53.8027 10.8984H82.4027C90.4027 10.8984 97.4027 16.1984 99.5027 23.8984L109.303 59.0984L119.703 58.7984L121.503 13.6984C121.803 6.29844 127.903 0.398438 135.303 0.398438H201.003C208.103 0.398438 214.003 5.79844 214.703 12.8984L219.303 58.5984L233.603 58.1984L238.803 25.7984C240.203 17.1984 247.603 10.8984 256.303 10.8984H281.903C290.203 10.8984 298.103 14.3984 303.603 20.5984C309.203 26.6984 311.903 34.8984 311.003 43.1984L305.803 94.8984C305.703 118.598 290.103 138.698 268.703 145.598L291.303 323.398C319.303 330.898 340.003 356.498 340.003 386.898ZM83.4027 141.398H252.303C278.003 141.398 298.903 120.398 298.903 94.6984L299.003 94.2984L304.203 42.4984C304.903 36.1984 302.803 29.8984 298.603 25.1984C294.303 20.3984 288.203 17.6984 281.903 17.6984H256.303C251.003 17.6984 246.403 21.5984 245.603 26.8984L239.503 64.7984L213.103 65.5984L207.903 13.4984C207.503 9.99844 204.603 7.29844 201.003 7.29844H135.303C131.603 7.29844 128.503 10.1984 128.303 13.9984L126.303 65.3984L104.103 66.1984L92.9027 25.6984C91.6027 20.9984 87.3027 17.6984 82.4027 17.6984H53.8027C47.5027 17.6984 41.4027 20.3984 37.2027 25.1984C32.9027 29.8984 30.8027 36.1984 31.5027 42.4984L36.7027 94.6984C36.7027 120.398 57.7027 141.398 83.4027 141.398ZM56.5027 321.898C59.7694 321.365 63.1027 321.098 66.5027 321.098H274.203C277.603 321.098 280.936 321.365 284.203 321.898L262.003 147.298C258.803 147.898 255.603 148.198 252.303 148.198H83.4027C80.8694 148.198 78.3694 148.032 75.9027 147.698L56.5027 321.898ZM333.203 386.798C333.203 354.398 306.803 327.898 274.303 327.898H66.6027C34.1027 327.898 7.70273 354.398 7.70273 386.798V415.798H333.203V386.798Z" fill="#231F20"/>
<path d="M333.104 386.898V415.798H7.60352V386.898C7.60352 354.398 34.0035 327.998 66.5035 327.998H274.204C306.704 327.998 333.104 354.398 333.104 386.898Z" fill="#E8B128"/>
<path d="M284.204 321.897C280.937 321.364 277.604 321.097 274.204 321.097H66.5039C63.1039 321.097 59.7706 321.364 56.5039 321.897L75.9039 147.697C78.3706 148.03 80.8706 148.197 83.4039 148.197H252.304C255.604 148.197 258.804 147.897 262.004 147.297L284.204 321.897Z" fill="#E8B128"/>
<path d="M304.204 42.4969L299.004 94.2969L298.904 94.6969C298.904 120.397 278.004 141.397 252.304 141.397H83.4035C57.7035 141.397 36.7035 120.397 36.7035 94.6969L31.5035 42.4969C30.8035 36.1969 32.9035 29.8969 37.2035 25.1969C41.4035 20.3969 47.5035 17.6969 53.8035 17.6969H82.4035C87.3035 17.6969 91.6035 20.9969 92.9035 25.6969L104.104 66.1969L126.304 65.3969L128.304 13.9969C128.504 10.1969 131.604 7.29688 135.304 7.29688H201.004C204.604 7.29688 207.504 9.99688 207.904 13.4969L213.104 65.5969L239.504 64.7969L245.604 26.8969C246.404 21.5969 251.004 17.6969 256.304 17.6969H281.904C288.204 17.6969 294.304 20.3969 298.604 25.1969C302.804 29.8969 304.904 36.1969 304.204 42.4969Z" fill="#E8B128"/>
<path d="M56.9037 19.1992C57.4037 18.4992 58.6037 17.6992 55.0037 17.6992C48.3037 17.6992 29.5037 21.1992 31.4037 41.7992C33.7037 66.7992 35.0037 91.6992 38.0037 101.699C40.7037 110.599 44.0037 35.5992 56.9037 19.1992Z" fill="#F9ED61"/>
<path d="M128.403 13.1969L127.303 42.7969C127.303 42.7969 147.403 11.6969 158.703 7.29688H134.903C131.803 7.29688 128.603 10.0969 128.403 13.1969Z" fill="#F9ED61"/>
<path d="M273.504 17.7971L242.504 46.1971C242.504 46.1971 243.404 38.8971 244.404 32.6971C245.304 26.6971 246.304 21.9971 250.304 19.5971C252.104 16.3971 273.504 17.7971 273.504 17.7971Z" fill="#F9ED61"/>
<path d="M109.004 148.497C109.004 148.497 226.704 162.797 236.204 238.397C245.204 309.497 248.604 321.097 248.604 321.097L284.204 321.897L262.004 147.297L253.404 148.197C252.937 148.264 252.437 148.297 251.904 148.297L109.004 148.497Z" fill="#EFD63C"/>
<path d="M270.903 123.397C259.603 131.997 246.103 136.797 246.103 136.797C238.503 139.497 231.703 140.697 226.703 141.397C226.703 141.397 264.203 143.797 272.603 136.697C295.503 129.197 299.403 103.297 301.203 78.3969C302.403 61.6969 304.303 41.7969 304.303 41.7969C301.903 81.4969 286.303 111.697 270.903 123.397Z" fill="#EFD63C"/>
<path d="M332.903 380.397C329.703 350.897 304.703 327.797 274.403 327.797H170.403H66.4031C36.1031 327.797 11.0031 350.897 7.80315 380.397C7.60315 382.497 7.70315 384.297 9.40315 378.197C11.4031 370.597 16.3031 364.297 22.3031 359.497C32.1031 351.497 44.5031 347.397 57.2031 346.997C78.8031 346.397 124.103 345.297 170.403 344.997C216.603 345.297 261.903 346.397 283.503 346.997C296.203 347.397 308.603 351.497 318.503 359.497C324.403 364.297 329.303 370.597 331.303 378.197C333.003 384.297 333.103 382.497 332.903 380.397Z" fill="#F9ED61"/>
</svg>
