<svg width="126" height="176" viewBox="0 0 126 176" fill="none" xmlns="http://www.w3.org/2000/svg">
<path fill-rule="evenodd" clip-rule="evenodd" d="M126 164.227V171.659C126 173.755 124.323 175.432 122.265 175.432H3.73505C1.67697 175.432 0 173.755 0 171.659V164.227C0 148.906 12.4247 136.481 27.7078 136.443C28.0508 136.405 28.3938 136.367 28.775 136.328C5.67877 108.43 14.7877 77.5209 15.5499 75.1579C17.8748 55.5681 39.7895 34.5299 48.2123 27.098C46.1162 24.2015 44.9728 20.7332 44.9728 17.1125C44.9728 7.66062 52.6715 0 62.1234 0C71.5372 0 79.2359 7.66062 79.2359 17.1125C79.2359 23.9728 75.0436 30.2232 68.755 32.8911C58.7695 49.3938 57.245 83.5426 57.0163 90.7459L71.5372 90.784C71.3847 52.9383 83.1996 35.7495 83.6951 35.0254L84.6479 33.7296L85.7151 34.9111C116.472 68.1071 114.795 85.4102 114.452 87.392C115.062 111.67 104.352 128.592 98.1016 136.405C98.1398 136.405 98.216 136.405 98.2922 136.443C113.575 136.481 126 148.906 126 164.227ZM31.9383 136.062C41.7713 135.261 51.6806 134.804 61.5136 134.766C72.6425 134.728 83.8475 135.185 94.9383 136.138C100.731 129.354 112.508 112.356 111.86 87.3158V87.1633L111.898 87.0109C111.936 86.8584 114.642 70.5082 84.9528 37.922C82.1706 42.686 73.7858 60.2559 74.167 92.0417V93.2995L54.3484 93.4138L54.3866 92.0799C54.3866 90.3648 55.0345 49.8131 66.8494 31.0236L67.3067 30.6806C72.8711 28.5463 76.6443 23.0962 76.6443 17.1125C76.6443 9.10889 70.127 2.59165 62.1234 2.59165C54.0817 2.59165 47.6026 9.10889 47.6026 17.1125C47.6026 20.657 48.8984 24.0871 51.2232 26.7169L51.0708 28.0889C45.9637 32.4719 20.4664 55.4156 18.1416 75.5771L18.0653 75.8439C17.951 76.1488 7.50819 107.973 31.9383 136.062ZM123.408 164.227C123.408 150.316 112.127 139.034 98.216 139.034H98.1016C85.9819 137.891 73.7096 137.358 61.5136 137.396C50.3467 137.434 39.0272 137.967 27.8983 139.034H27.784C13.873 139.034 2.59167 150.316 2.59167 164.227V171.659C2.59167 172.307 3.12525 172.802 3.73505 172.802H122.265C122.875 172.802 123.408 172.307 123.408 171.659V164.227Z" fill="black"/>
<path d="M123.401 164.224V171.656C123.401 172.304 122.867 172.799 122.257 172.799H3.72736C3.11756 172.799 2.58398 172.304 2.58398 171.656V164.224C2.58398 150.313 13.8653 139.031 27.7764 139.031H27.8907C39.0195 137.964 50.339 137.431 61.5059 137.393C73.702 137.354 85.9742 137.888 98.094 139.031H98.2083C112.119 139.031 123.401 150.313 123.401 164.224Z" fill="#F8F8F8"/>
<path d="M111.86 87.1635V87.3159C112.508 112.356 100.731 129.354 94.9377 136.138C83.847 135.185 72.6419 134.728 61.5131 134.766C51.68 134.804 41.7708 135.262 31.9377 136.062C7.50761 107.973 17.9504 76.149 18.0648 75.8441L18.141 75.5773C20.4658 55.4158 45.9631 32.472 51.0702 28.0891L51.2227 26.717C48.8978 24.0873 47.602 20.6571 47.602 17.1127C47.602 9.10904 54.0811 2.5918 62.1228 2.5918C70.1265 2.5918 76.6437 9.10904 76.6437 17.1127C76.6437 23.0963 72.8706 28.5464 67.3061 30.6807L66.8488 31.0237C55.0339 49.8132 54.386 90.3649 54.386 92.08L54.3479 93.4139L74.1664 93.2996V92.0419C73.7853 60.256 82.17 42.6862 84.9522 37.9221C114.642 70.5083 111.936 86.8586 111.898 87.011L111.86 87.1635Z" fill="#F8F8F8"/>
<path d="M98.7058 54.8809C100.345 57.7774 111.169 77.4435 103.089 100.997C94.9327 124.779 74.0852 133.621 70.998 134.879L94.9327 136.137C94.9327 136.137 103.699 126.304 108.043 112.774C111.931 100.654 113.15 84.723 110.559 77.6721C107.738 69.821 105.947 65.2475 98.7058 54.8809Z" fill="#C1C1C1"/>
<path d="M120.733 152.942C118.408 152.066 115.854 151.151 113.148 150.198C102.286 146.463 52.1302 147.759 26.3661 148.674C15.6565 149.017 8.6057 152.18 4.07031 155.725C7.57666 146.006 16.8761 139.031 27.7763 139.031H27.8906C39.0195 137.964 50.3389 137.431 61.5059 137.393C73.7019 137.354 85.9741 137.888 98.0939 139.031H98.2082C108.041 139.031 116.579 144.71 120.733 152.942Z" fill="white"/>
<path d="M68.2194 3.96484C68.2194 3.96484 76.3755 11.816 71.5733 20.8106C66.7712 29.8051 56.2902 33.6164 52.2884 48.7089C48.3247 63.8015 50.116 69.3659 54.3465 93.4149L55.5661 73.5583C55.5661 73.5583 57.929 53.6255 61.0543 44.2879C64.4082 35.522 66.3519 31.1391 67.6477 30.5293C69.3247 30.0338 72.6024 27.8995 74.2793 25.003C76.0325 22.2207 77.0615 19.1336 76.5661 15.856C75.9944 11.9304 74.7748 7.31875 68.2194 3.96484Z" fill="#C1C1C1"/>
</svg>
