<svg width="157" height="170" viewBox="0 0 157 170" fill="none" xmlns="http://www.w3.org/2000/svg">
<path fill-rule="evenodd" clip-rule="evenodd" d="M64.0096 80.7344L63.9009 105.751C63.9009 107.781 62.1968 109.449 60.1665 109.449H58.4261C54.0392 109.449 49.906 107.745 46.7517 104.627C40.4794 98.4274 33.1557 89.1096 33.8083 79.973C33.9895 77.5801 35.4761 75.2235 37.9052 73.5557C41.3496 71.1628 49.0359 68.3348 61.5805 76.3112C63.1033 77.2538 64.0096 78.9579 64.0096 80.7344ZM61.5442 80.7344C61.5442 79.7918 61.0729 78.8854 60.2752 78.414C54.438 74.7159 49.8335 73.5195 46.3529 73.5195C43.0536 73.5195 40.7332 74.6071 39.3192 75.5861C37.5064 76.8188 36.4187 78.4865 36.3099 80.1543C35.6573 88.7833 43.67 98.1011 48.5283 102.851C51.175 105.534 54.6918 106.984 58.4261 106.984H60.1665C60.8553 106.984 61.3992 106.404 61.4354 105.715L61.5442 80.7344Z" fill="black"/>
<path fill-rule="evenodd" clip-rule="evenodd" d="M109.941 104.627C108.345 106.186 106.533 107.383 104.538 108.217C102.581 109.014 100.441 109.449 98.2299 109.449H96.5258C94.4955 109.449 92.7914 107.781 92.7914 105.751L92.6827 80.7344C92.6464 78.9579 93.5891 77.2538 95.0756 76.3112C107.656 68.3348 115.343 71.1628 118.787 73.5557C121.216 75.2235 122.703 77.5801 122.884 79.973C123.537 89.1096 116.213 98.4274 109.941 104.627ZM120.382 80.1543C120.274 78.4865 119.15 76.8188 117.373 75.5861C115.923 74.6071 113.639 73.5195 110.303 73.5195C106.823 73.5195 102.254 74.7159 96.417 78.414C95.6194 78.8854 95.1481 79.7918 95.1481 80.7344L95.2569 105.715C95.2569 106.404 95.837 106.984 96.5258 106.984H98.2299C101.964 106.984 105.517 105.534 108.164 102.851C112.986 98.1011 120.999 88.7833 120.382 80.1543Z" fill="black"/>
<path fill-rule="evenodd" clip-rule="evenodd" d="M144.504 110.11L144.468 110.182L121.917 134.401C132.503 138.136 138.776 146.33 138.776 156.626V164.53C138.776 167.177 136.6 169.352 133.954 169.352H22.6837C20.0008 169.352 17.8253 167.177 17.8253 164.53V156.626C17.8253 146.185 24.279 137.773 34.8295 134.22L12.4957 110.11C-11.8684 79.9085 6.73101 57.611 7.70993 56.487C25.6567 33.6457 54.4803 43.7974 62.8917 47.4592C63.218 47.6043 63.5081 47.4955 63.6168 47.423C63.7619 47.3867 64.0157 47.2055 64.0882 46.8791L66.5173 36.8362H53.9002V14.3574H67.3875V0H89.6125V14.3574H103.1V36.8362H90.4827L92.9118 46.8791C92.9843 47.2055 93.2381 47.3867 93.3832 47.423C93.4919 47.4955 93.782 47.6043 94.1083 47.4592C102.52 43.7974 131.343 33.6457 149.29 56.487C150.269 57.611 168.868 79.9085 144.504 110.11ZM119.342 136.178C117.856 135.779 116.297 135.417 114.702 135.199C102.701 133.495 90.4827 132.625 78.3369 132.625H77.5754C64.9221 132.661 53.5014 133.93 43.4222 135.018L41.8995 135.199C40.3042 135.38 38.8176 135.67 37.4037 136.033C26.8531 138.861 20.3271 146.728 20.3271 156.626V164.53C20.3271 165.835 21.3785 166.887 22.6837 166.887H133.954C135.259 166.887 136.31 165.835 136.31 164.53V156.626C136.31 146.873 129.966 139.223 119.342 136.178ZM147.405 58.0823L147.368 58.046C130.509 36.5824 103.1 46.2628 95.0872 49.7434C94.1808 50.1422 93.1293 50.1059 92.2592 49.6709C91.389 49.2358 90.7365 48.4019 90.4827 47.423L87.3646 34.3345H100.634V16.8591H87.1108V2.50167H69.8892V16.8591H56.3656V34.3345H69.6354L66.5173 47.423C66.2635 48.4019 65.611 49.2358 64.7408 49.6709C63.8707 50.1059 62.8192 50.1422 61.9128 49.7434C53.9002 46.2628 26.4906 36.5824 9.63152 58.046L9.59523 58.0823C8.83385 58.9524 -9.07669 79.4009 14.381 108.551L37.4762 133.459C37.8388 133.386 38.2014 133.314 38.5639 133.241C38.8177 133.169 39.0715 133.132 39.289 133.096C40.0625 132.951 40.8359 132.83 41.6094 132.734L43.1684 132.552C53.3201 131.428 64.777 130.196 77.5754 130.123H78.3369C79.352 130.123 80.3672 130.159 81.3461 130.159C81.7087 130.159 82.0591 130.159 82.3975 130.159C90.0838 130.304 97.8064 130.776 105.456 131.573C105.553 131.573 105.65 131.573 105.746 131.573C107.1 131.718 108.442 131.876 109.771 132.045C109.988 132.069 110.206 132.093 110.424 132.117C111.97 132.311 113.505 132.516 115.028 132.734C115.85 132.854 116.648 132.999 117.421 133.169C117.663 133.217 117.904 133.277 118.146 133.35C118.509 133.422 118.907 133.495 119.27 133.604L142.619 108.551C166.077 79.4009 148.166 58.9524 147.405 58.0823Z" fill="black"/>
<path d="M136.298 156.627V164.53C136.298 165.836 135.246 166.887 133.941 166.887H22.6711C21.3659 166.887 20.3145 165.836 20.3145 164.53V156.627C20.3145 146.729 26.8405 138.861 37.391 136.033C38.805 135.671 40.2916 135.38 41.8868 135.199L43.4096 135.018C53.4888 133.93 64.9094 132.661 77.5628 132.625H78.3242C90.47 132.625 102.688 133.495 114.689 135.199C116.284 135.417 117.843 135.779 119.33 136.178C129.953 139.224 136.298 146.874 136.298 156.627Z" fill="#F8F8F8"/>
<path fill-rule="evenodd" clip-rule="evenodd" d="M142.634 108.545L119.285 133.598C118.923 133.489 118.524 133.417 118.161 133.344C117.92 133.272 117.678 133.211 117.436 133.163C116.663 132.994 115.865 132.849 115.043 132.728C113.52 132.511 111.986 132.305 110.439 132.112C110.221 132.088 110.004 132.063 109.786 132.039C108.457 131.87 107.115 131.713 105.762 131.568C105.665 131.568 105.568 131.568 105.472 131.568C97.8215 130.77 90.099 130.299 82.4127 130.154C82.0743 130.154 81.7238 130.154 81.3613 130.154C80.3824 130.154 79.3672 130.118 78.352 130.118H77.5906C64.7922 130.19 53.3353 131.423 43.1836 132.547L41.6245 132.728C40.8511 132.825 40.0777 132.946 39.3042 133.091C39.0867 133.127 38.8329 133.163 38.5791 133.236C38.2165 133.308 37.854 133.381 37.4914 133.453L14.3962 108.545C-9.06152 79.3953 8.84901 58.9469 9.61039 58.0767L9.64668 58.0405C26.5058 36.5768 53.9154 46.2572 61.928 49.7378C62.8344 50.1366 63.8858 50.1004 64.756 49.6653C65.6261 49.2302 66.2787 48.3963 66.5325 47.4174L69.6505 34.329H56.3808V16.8535H69.9043V2.49609H87.126V16.8535H100.65V34.329H87.3797L90.4978 47.4174C90.7516 48.3963 91.4042 49.2302 92.2743 49.6653C93.1445 50.1004 94.1959 50.1366 95.1023 49.7378C103.115 46.2572 130.525 36.5768 147.384 58.0405L147.42 58.0767C148.181 58.9469 166.092 79.3953 142.634 108.545ZM64.0308 80.7368C64.0308 78.9602 63.1245 77.2562 61.6017 76.3135C49.0571 68.3372 41.3708 71.1652 37.9264 73.5581C35.4973 75.2259 34.0108 77.5825 33.8295 79.9754C33.1769 89.1119 40.5006 98.4298 46.7729 104.63C49.9272 107.748 54.0604 109.452 58.4473 109.452H60.1877C62.218 109.452 63.9221 107.784 63.9221 105.754L64.0308 80.7368ZM122.875 79.9391C122.693 77.5462 121.207 75.1896 118.778 73.5218C115.333 71.1289 107.683 68.3009 95.1023 76.2773C93.5795 77.2199 92.6732 78.924 92.6732 80.7368L92.8182 105.717C92.8182 107.748 94.486 109.415 96.5526 109.415H98.2566C100.468 109.415 102.571 108.98 104.565 108.183C106.559 107.385 108.372 106.152 109.931 104.593C116.203 98.3935 123.527 89.0757 122.875 79.9391Z" fill="#F8F8F8"/>
<path d="M143.724 54.0156C143.724 54.0156 158.262 71.5636 145.935 93.1722C140.787 102.2 133.318 111.191 125.233 117.935C116.568 125.15 107.83 131.821 107.83 131.821L119.287 133.598L139.953 111.409C139.953 111.409 153.622 97.1241 154.564 81.7878C155.507 66.1252 147.494 57.1336 143.724 54.0156Z" fill="#C1C1C1"/>
<path d="M133.991 147.2C117.857 142.668 84.828 142.958 56.3669 143.284C35.991 143.538 25.803 148.143 20.8359 152.058C22.54 144.336 28.5585 138.39 37.405 136.033C38.819 135.671 40.3055 135.38 41.9008 135.199L43.4235 135.018C53.5027 133.93 64.9234 132.661 77.5768 132.625H78.3382C90.484 132.625 102.702 133.495 114.703 135.199C116.298 135.417 117.857 135.779 119.344 136.178C126.196 138.136 131.272 142.052 133.991 147.2Z" fill="white"/>
</svg>
